<svg xmlns="http://www.w3.org/2000/svg" viewBox="0 0 43.19 43.19"><defs><style>.cls-1{fill:#a5a5a5;fill-rule:evenodd;}</style></defs><g id="Layer_2" data-name="Layer 2"><g id="Layer_1-2" data-name="Layer 1"><g id="noun-key-1423611"><path id="Path_1068" data-name="Path 1068" class="cls-1" d="M0,21.6A21.6,21.6,0,1,0,21.6,0,21.59,21.59,0,0,0,0,21.6Zm6.49,0A6.64,6.64,0,0,0,19,24.8h2.69V22.48h2.73V24.8h.83v-.47h1.31v.47h1V23.16h1.34V24.8h1.31V22.28H31.5V24.8h1.9l3.34-6.4H19A6.64,6.64,0,0,0,6.49,21.6Zm13.16,1.33a.19.19,0,0,1,.05-.14A.19.19,0,0,0,19.65,22.93Zm.05-.32a.35.35,0,0,1,.05-.18A.35.35,0,0,0,19.7,22.61Zm.05-1.86a.37.37,0,0,1,0-.18.31.31,0,0,0,0,.19Zm-.05-.31a.41.41,0,0,1-.05-.19A.41.41,0,0,0,19.7,20.44ZM8.39,21.6A1.57,1.57,0,0,0,10,23.17a1.71,1.71,0,0,0,1.16-.46,1.56,1.56,0,0,0,0-2.21h0A1.7,1.7,0,0,0,10,20,1.58,1.58,0,0,0,8.38,21.6Zm.93.7a1,1,0,0,1,0-1.39,1.12,1.12,0,0,1,.65-.28,1.14,1.14,0,0,1,.7.28,1,1,0,0,1,0,1.39,1.19,1.19,0,0,1-.72.27,1.12,1.12,0,0,1-.63-.29Z"/></g></g></g></svg>